<svg width="20" height="20" viewBox="0 0 20 20" fill="none" xmlns="http://www.w3.org/2000/svg">
<path d="M14.9993 8.55636C15.4975 8.84453 15.8327 9.38315 15.8327 10.0001C15.8327 10.617 15.4975 11.1556 14.9993 11.4437M14.9993 5.91671C16.9012 6.30277 18.3327 7.98423 18.3327 10C18.3327 12.0158 16.9012 13.6973 14.9993 14.0833M6.27704 6.3351L9.83268 3.66958C10.9314 2.84591 12.4993 3.62952 12.4993 5.00231V14.9978C12.4993 16.3706 10.9314 17.1542 9.83268 16.3305L6.27704 13.665C5.9886 13.4487 5.63782 13.3319 5.27733 13.3319H3.33268C2.41221 13.3319 1.66602 12.586 1.66602 11.666V8.33413C1.66602 7.41407 2.41221 6.66822 3.33268 6.66822H5.27733C5.63782 6.66822 5.9886 6.55134 6.27704 6.3351Z" stroke="#398B39" stroke-width="1.5" stroke-linecap="round"/>
</svg>
